{"title":"Sting-The Last Ship [Live] 2014 720p BluRay x264 DTS-titler","uid":15825469,"size":4619279543,"categoryP":"video","categoryS":"hd___movies","magnet":"?xt=urn:btih:f3c1a455962f2868ccdf75d8fc5fe177777b6a36&amp;dn=Sting-The+Last+Ship+%5BLive%5D+2014+720p+BluRay+x264+DTS-titler&amp;tr=udp%3A%2F%2Ftracker.leechers-paradise.org%3A6969&amp;tr=udp%3A%2F%2Fzer0day.ch%3A1337&amp;tr=udp%3A%2F%2Fopen.demonii.com%3A1337&amp;tr=udp%3A%2F%2Ftracker.coppersurfer.tk%3A6969&amp;tr=udp%3A%2F%2Fexodus.desync.com%3A6969","seeders":3,"leechers":1,"uploader":"movieZ.freak","files":4,"time":1473831818,"description":"SOURCE: Sting The Last Ship Live At The Public Theater 2014 1080p BluRay DTS x264\r\n  \r\n   \nhttp://www.imdb.com/title/tt3695114/\r\n\r\n \nhttp://en.wikipedia.org/wiki/The_Last_Ship_%28musical%29\r\n\r\n\r\n  \r\n- SAMPLE: Yes\r\n  \r\n- SUBTITLE: English (full)\r\n  \r\n- LANGUAGE / AUDIO: English\r\n\r\n  \r\n  \r\nSCREENSHOTS:\r\n-------------------   \nhttps://someimage.com/ivKT\r\n\r\n  \r\n  \r\nDIRECTOR: Paul Bozymowski\r\n\r\n  \r\n\r\nTRACKLIST:\r\n---------------\r\n01 - The Last Ship\r\n02 - Shipyard\r\n03 - Coming Home's Not Easy\r\n04 - And Yet\r\n05 - August Winds\r\n06 - What Have We Got?\r\n07 - Practical Arrangement\r\n08 - What Say You Meg?\r\n09 - Dead Man's Boots\r\n10 - Big Steamers\r\n11 - Jock The Singing Welder\r\n12 - So To Speak\r\n13 - Show Some Respect\r\n14 - Underground River\r\n15 - The Last Ship (Reprise)\r\n  \r\n*******************************************************\r\n  \r\nINFO:\r\n-----------\r\nIn an intimate evening of music and storytelling filmed on Sting's birthday during a run of benefit concerts at The Public Theater in New York City, &quot;The Last Ship&quot; features Sting joined by 14 musicians performing original songs from his critically acclaimed album and Broadway musical of the same name. Inspired by his  hood experiences, &quot;The Last Ship,&quot; is set in the seafaring community of Wallsend in the North East of England where Sting was born and raised and marks his Broadway debut as a composer. Against a backdrop of evocativeb visual projections, this captivating live performance takes us on a journey of love, loss, redemption, and self-discovery, offering an inside look at the story behind &quot;The Last Ship.&quot;\r\n  \r\n************************************\r\n\r\n- Duration: 1h 22mn\r\n\r\n- Nominal bit rate: 5860 Kbps\r\n\r\n- Res: 1280 x 720\r\n\r\n- AR: 16:9\r\n\r\n- FPS: 23.976 fps\r\n\r\n- Audio: DTS, 6 channels, 1509 Kbps\r\n\r\n************************************\r\n\r\nGeneral\r\n-------------\r\nFormat : Matroska\r\nFormat version : Version 4 / Version 2\r\nFile size : 4.24 GiB\r\nDuration : 1h 22mn\r\nOverall bit rate : 7378 Kbps\r\nEncoded date : UTC 2016-09-11 13:17:48\r\nWriting application : mkvmerge v9.4.2 ('So High') 64bit\r\nWriting library : libebml v1.3.4 + libmatroska v1.4.5\r\n\r\nVideo\r\n-----------\r\nFormat : AVC\r\nFormat/Info : Advanced Video Codec\r\nFormat profile :   \r\nFormat settings, CABAC : Yes\r\nFormat settings, ReFrames : 5 frames\r\nCodec ID : V_MPEG4/ISO/AVC\r\nDuration : 1h 22mn\r\nBit rate : 5860 Kbps\r\nWidth : 1280 pixels\r\nHeight : 720 pixels\r\nDisplay aspect ratio : 16:9\r\nFrame rate mode : Constant\r\nFrame rate : 23.976 fps\r\nColor space : YUV\r\nChroma subsampling : 4:2:0\r\nBit depth : 8 bits\r\nScan type : Progressive\r\nBits/(Pixel*Frame) : 0.265\r\nStream size : 3.28 GiB (78%)\r\nWriting library : x264 core 142\r\nEncoding settings : cabac=1 / ref=5\r\nDefault : Yes\r\nForced : No\r\n\r\nAudio\r\n----------\r\nFormat : DTS\r\nFormat/Info : Digital Theater Systems\r\nFormat settings, Endianness : Big\r\nCodec ID : A_DTS\r\nDuration : 1h 22mn\r\nBit rate mode : Constant\r\nBit rate : 1509 Kbps\r\nChannel(s) : 6 channels\r\nChannel positions : Front: L C R, Side: L R, LFE\r\nSampling rate : 48.0 KHz\r\nBit depth : 24 bits\r\nCompression mode : Lossy\r\nStream size : 887 MiB (20%)\r\nTitle : Surround\r\nLanguage : English\r\nDefault : Yes\r\nForced : No","torrent":{"xt":"urn:btih:f3c1a455962f2868ccdf75d8fc5fe177777b6a36","amp;dn":"Sting-The+Last+Ship+%5BLive%5D+2014+720p+BluRay+x264+DTS-titler","amp;tr":["udp%3A%2F%2Ftracker.leechers-paradise.org%3A6969","udp%3A%2F%2Fzer0day.ch%3A1337","udp%3A%2F%2Fopen.demonii.com%3A1337","udp%3A%2F%2Ftracker.coppersurfer.tk%3A6969","udp%3A%2F%2Fexodus.desync.com%3A6969"],"infoHash":"f3c1a455962f2868ccdf75d8fc5fe177777b6a36","infoHashBuffer":{"type":"Buffer","data":[243,193,164,85,150,47,40,104,204,223,117,216,252,95,225,119,119,123,106,54]},"announce":[],"urlList":[]}}